<mxfile host="app.diagrams.net" modified="2023-10-03T05:44:05.458Z" agent="Mozilla/5.0 (Windows NT 10.0; Win64; x64) AppleWebKit/537.36 (KHTML, like Gecko) Chrome/117.0.0.0 Safari/537.36" version="22.0.0" etag="-eY9UD4JHh0KgE3pe3xK" type="github">
  <diagram name="第 1 页" id="9kjhVUVBI522da3zVaKt">
    <mxGraphModel>
      <root>
        <mxCell id="0" />
        <mxCell id="1" parent="0" />
      </root>
    </mxGraphModel>
  </diagram>
</mxfile>
